<mxfile host="65bd71144e">
    <diagram id="Bz4yaCBwQLUwJJT0A78D" name="第 1 页">
        <mxGraphModel dx="1029" dy="790" grid="0" gridSize="10" guides="1" tooltips="1" connect="1" arrows="1" fold="1" page="1" pageScale="1" pageWidth="827" pageHeight="1169" background="none" math="0" shadow="0">
            <root>
                <mxCell id="0"/>
                <mxCell id="1" parent="0"/>
                <mxCell id="15" value="" style="edgeStyle=none;html=1;" parent="1" source="2" target="13" edge="1">
                    <mxGeometry relative="1" as="geometry"/>
                </mxCell>
                <mxCell id="2" value="&lt;pre style=&quot;margin-top: 0px; margin-bottom: 0px; overflow: auto; border-radius: 4px;&quot;&gt;&lt;pre style=&quot;font-size: 24px; font-weight: 700; margin-top: 0px; margin-bottom: 0px; overflow: auto; border-radius: 4px;&quot;&gt;&lt;font face=&quot;menlo, monaco, consolas, andale mono, lucida console, courier new, monospace&quot;&gt;&lt;span style=&quot;font-size: 21.6px ; font-weight: 400&quot;&gt;Node&lt;/span&gt;&lt;/font&gt;&lt;/pre&gt;&lt;/pre&gt;" style="rounded=0;whiteSpace=wrap;html=1;fillColor=#cdeb8b;strokeColor=#36393d;fontColor=#000000;" parent="1" vertex="1">
                    <mxGeometry x="380" y="190" width="120" height="60" as="geometry"/>
                </mxCell>
                <mxCell id="4" value="&lt;pre style=&quot;margin-top: 0px; margin-bottom: 0px; font-size: 0.9em; overflow: auto; background-image: initial; background-position: initial; background-size: initial; background-repeat: initial; background-attachment: initial; background-origin: initial; background-clip: initial; border-radius: 4px;&quot;&gt;&lt;pre style=&quot;font-size: 12px ; margin-top: 0px ; margin-bottom: 0px ; overflow: auto ; border-radius: 4px&quot;&gt;&lt;pre style=&quot;font-size: 24px; font-weight: 700; margin-top: 0px; margin-bottom: 0px; overflow: auto; border-radius: 4px;&quot;&gt;&lt;font face=&quot;menlo, monaco, consolas, andale mono, lucida console, courier new, monospace&quot;&gt;&lt;span style=&quot;font-size: 21.6px ; font-weight: 400&quot;&gt;Node&lt;/span&gt;&lt;/font&gt;&lt;/pre&gt;&lt;/pre&gt;&lt;/pre&gt;" style="rounded=0;whiteSpace=wrap;html=1;labelBackgroundColor=none;fillColor=#cdeb8b;strokeColor=#36393d;fontColor=#000000;" parent="1" vertex="1">
                    <mxGeometry x="380" y="250" width="120" height="60" as="geometry"/>
                </mxCell>
                <mxCell id="5" value="&lt;pre style=&quot;margin-top: 0px; margin-bottom: 0px; font-size: 0.9em; overflow: auto; background-image: initial; background-position: initial; background-size: initial; background-repeat: initial; background-attachment: initial; background-origin: initial; background-clip: initial; border-radius: 4px;&quot;&gt;&lt;pre style=&quot;font-size: 12px ; margin-top: 0px ; margin-bottom: 0px ; overflow: auto ; border-radius: 4px&quot;&gt;&lt;pre style=&quot;font-size: 24px; font-weight: 700; margin-top: 0px; margin-bottom: 0px; overflow: auto; border-radius: 4px;&quot;&gt;&lt;font face=&quot;menlo, monaco, consolas, andale mono, lucida console, courier new, monospace&quot;&gt;&lt;span style=&quot;font-size: 21.6px ; font-weight: 400&quot;&gt;Node&lt;/span&gt;&lt;/font&gt;&lt;/pre&gt;&lt;/pre&gt;&lt;/pre&gt;" style="rounded=0;whiteSpace=wrap;html=1;labelBackgroundColor=none;fillColor=#cdeb8b;strokeColor=#36393d;fontColor=#000000;" parent="1" vertex="1">
                    <mxGeometry x="380" y="310" width="120" height="60" as="geometry"/>
                </mxCell>
                <mxCell id="18" value="" style="edgeStyle=none;html=1;" parent="1" source="6" target="16" edge="1">
                    <mxGeometry relative="1" as="geometry"/>
                </mxCell>
                <mxCell id="6" value="&lt;pre style=&quot;margin-top: 0px; margin-bottom: 0px; font-size: 0.9em; overflow: auto; background-image: initial; background-position: initial; background-size: initial; background-repeat: initial; background-attachment: initial; background-origin: initial; background-clip: initial; border-radius: 4px;&quot;&gt;&lt;pre style=&quot;font-size: 12px ; margin-top: 0px ; margin-bottom: 0px ; overflow: auto ; border-radius: 4px&quot;&gt;&lt;pre style=&quot;font-size: 24px; font-weight: 700; margin-top: 0px; margin-bottom: 0px; overflow: auto; border-radius: 4px;&quot;&gt;&lt;font face=&quot;menlo, monaco, consolas, andale mono, lucida console, courier new, monospace&quot;&gt;&lt;span style=&quot;font-size: 21.6px ; font-weight: 400&quot;&gt;Node&lt;/span&gt;&lt;/font&gt;&lt;/pre&gt;&lt;/pre&gt;&lt;/pre&gt;" style="rounded=0;whiteSpace=wrap;html=1;labelBackgroundColor=none;fillColor=#cdeb8b;strokeColor=#36393d;fontColor=#000000;" parent="1" vertex="1">
                    <mxGeometry x="380" y="370" width="120" height="60" as="geometry"/>
                </mxCell>
                <mxCell id="7" value="&lt;pre style=&quot;margin-top: 0px; margin-bottom: 0px; font-size: 0.9em; overflow: auto; background-image: initial; background-position: initial; background-size: initial; background-repeat: initial; background-attachment: initial; background-origin: initial; background-clip: initial; border-radius: 4px; color: rgb(18, 18, 18);&quot;&gt;&lt;pre style=&quot;font-size: 12px ; margin-top: 0px ; margin-bottom: 0px ; overflow: auto ; border-radius: 4px&quot;&gt;&lt;pre style=&quot;color: rgb(240 , 240 , 240) ; font-size: 24px ; font-weight: 700 ; margin-top: 0px ; margin-bottom: 0px ; overflow: auto ; border-radius: 4px&quot;&gt;&lt;font color=&quot;#d7ba7d&quot; face=&quot;menlo, monaco, consolas, andale mono, lucida console, courier new, monospace&quot;&gt;&lt;span style=&quot;font-size: 21.6px ; font-weight: 400&quot;&gt;Node&lt;/span&gt;&lt;/font&gt;&lt;/pre&gt;&lt;/pre&gt;&lt;/pre&gt;" style="rounded=0;whiteSpace=wrap;html=1;labelBackgroundColor=default;" parent="1" vertex="1">
                    <mxGeometry x="380" y="430" width="120" height="60" as="geometry"/>
                </mxCell>
                <mxCell id="8" value="&lt;pre style=&quot;margin-top: 0px; margin-bottom: 0px; font-size: 0.9em; overflow: auto; background-image: initial; background-position: initial; background-size: initial; background-repeat: initial; background-attachment: initial; background-origin: initial; background-clip: initial; border-radius: 4px; color: rgb(18, 18, 18);&quot;&gt;&lt;pre style=&quot;font-size: 12px ; margin-top: 0px ; margin-bottom: 0px ; overflow: auto ; border-radius: 4px&quot;&gt;&lt;pre style=&quot;color: rgb(240 , 240 , 240) ; font-size: 24px ; font-weight: 700 ; margin-top: 0px ; margin-bottom: 0px ; overflow: auto ; border-radius: 4px&quot;&gt;&lt;font color=&quot;#d7ba7d&quot; face=&quot;menlo, monaco, consolas, andale mono, lucida console, courier new, monospace&quot;&gt;&lt;span style=&quot;font-size: 21.6px ; font-weight: 400&quot;&gt;Node&lt;/span&gt;&lt;/font&gt;&lt;/pre&gt;&lt;/pre&gt;&lt;/pre&gt;" style="rounded=0;whiteSpace=wrap;html=1;labelBackgroundColor=default;" parent="1" vertex="1">
                    <mxGeometry x="380" y="490" width="120" height="60" as="geometry"/>
                </mxCell>
                <mxCell id="9" value="" style="shape=curlyBracket;whiteSpace=wrap;html=1;rounded=1;" parent="1" vertex="1">
                    <mxGeometry x="340" y="190" width="20" height="600" as="geometry"/>
                </mxCell>
                <mxCell id="11" value="&lt;pre style=&quot;margin-top: 0px; margin-bottom: 0px; overflow: auto; background-image: initial; background-position: initial; background-size: initial; background-repeat: initial; background-attachment: initial; background-origin: initial; background-clip: initial; border-radius: 4px;&quot;&gt;&lt;font face=&quot;menlo, monaco, consolas, andale mono, lucida console, courier new, monospace&quot;&gt;&lt;span style=&quot;font-size: 21.6px ; font-weight: 400&quot;&gt;Node&amp;lt;K,V&amp;gt;[] table;数组桶&lt;/span&gt;&lt;/font&gt;&lt;font&gt;&lt;span style=&quot;font-size: 0.9em ; font-weight: 400&quot;&gt;&lt;br&gt;&lt;/span&gt;&lt;/font&gt;&lt;/pre&gt;" style="text;fillColor=none;html=1;fontSize=24;fontStyle=1;verticalAlign=middle;align=center;labelBackgroundColor=default;fontColor=#000000;" parent="1" vertex="1">
                    <mxGeometry x="51" y="467" width="284" height="40" as="geometry"/>
                </mxCell>
                <mxCell id="13" value="&lt;pre style=&quot;margin-top: 0px; margin-bottom: 0px; overflow: auto; background-image: initial; background-position: initial; background-size: initial; background-repeat: initial; background-attachment: initial; background-origin: initial; background-clip: initial; border-radius: 4px;&quot;&gt;&lt;pre style=&quot;font-size: 24px; font-weight: 700; margin-top: 0px; margin-bottom: 0px; overflow: auto; border-radius: 4px;&quot;&gt;&lt;font face=&quot;menlo, monaco, consolas, andale mono, lucida console, courier new, monospace&quot;&gt;&lt;span style=&quot;font-size: 21.6px ; font-weight: 400&quot;&gt;Node&lt;/span&gt;&lt;/font&gt;&lt;/pre&gt;&lt;/pre&gt;" style="rounded=0;whiteSpace=wrap;html=1;labelBackgroundColor=none;fillColor=#cdeb8b;strokeColor=#36393d;fontColor=#000000;" parent="1" vertex="1">
                    <mxGeometry x="550" y="190" width="120" height="60" as="geometry"/>
                </mxCell>
                <mxCell id="20" value="" style="edgeStyle=none;html=1;" parent="1" source="16" target="19" edge="1">
                    <mxGeometry relative="1" as="geometry"/>
                </mxCell>
                <mxCell id="16" value="&lt;pre style=&quot;margin-top: 0px; margin-bottom: 0px; font-size: 0.9em; overflow: auto; background-image: initial; background-position: initial; background-size: initial; background-repeat: initial; background-attachment: initial; background-origin: initial; background-clip: initial; border-radius: 4px; color: rgb(18, 18, 18);&quot;&gt;&lt;pre style=&quot;font-size: 12px ; margin-top: 0px ; margin-bottom: 0px ; overflow: auto ; border-radius: 4px&quot;&gt;&lt;pre style=&quot;color: rgb(240 , 240 , 240) ; font-size: 24px ; font-weight: 700 ; margin-top: 0px ; margin-bottom: 0px ; overflow: auto ; border-radius: 4px&quot;&gt;&lt;font color=&quot;#d7ba7d&quot; face=&quot;menlo, monaco, consolas, andale mono, lucida console, courier new, monospace&quot;&gt;&lt;span style=&quot;font-size: 21.6px ; font-weight: 400&quot;&gt;Node&lt;/span&gt;&lt;/font&gt;&lt;/pre&gt;&lt;/pre&gt;&lt;/pre&gt;" style="rounded=0;whiteSpace=wrap;html=1;labelBackgroundColor=default;" parent="1" vertex="1">
                    <mxGeometry x="520" y="370" width="120" height="60" as="geometry"/>
                </mxCell>
                <mxCell id="22" value="" style="edgeStyle=none;html=1;" parent="1" source="19" target="21" edge="1">
                    <mxGeometry relative="1" as="geometry"/>
                </mxCell>
                <mxCell id="19" value="&lt;pre style=&quot;margin-top: 0px; margin-bottom: 0px; font-size: 0.9em; overflow: auto; background-image: initial; background-position: initial; background-size: initial; background-repeat: initial; background-attachment: initial; background-origin: initial; background-clip: initial; border-radius: 4px; color: rgb(18, 18, 18);&quot;&gt;&lt;pre style=&quot;font-size: 12px ; margin-top: 0px ; margin-bottom: 0px ; overflow: auto ; border-radius: 4px&quot;&gt;&lt;pre style=&quot;color: rgb(240 , 240 , 240) ; font-size: 24px ; font-weight: 700 ; margin-top: 0px ; margin-bottom: 0px ; overflow: auto ; border-radius: 4px&quot;&gt;&lt;font color=&quot;#d7ba7d&quot; face=&quot;menlo, monaco, consolas, andale mono, lucida console, courier new, monospace&quot;&gt;&lt;span style=&quot;font-size: 21.6px ; font-weight: 400&quot;&gt;Node&lt;/span&gt;&lt;/font&gt;&lt;/pre&gt;&lt;/pre&gt;&lt;/pre&gt;" style="rounded=0;whiteSpace=wrap;html=1;labelBackgroundColor=default;" parent="1" vertex="1">
                    <mxGeometry x="660" y="370" width="120" height="60" as="geometry"/>
                </mxCell>
                <mxCell id="21" value="&lt;pre style=&quot;margin-top: 0px; margin-bottom: 0px; font-size: 0.9em; overflow: auto; background-image: initial; background-position: initial; background-size: initial; background-repeat: initial; background-attachment: initial; background-origin: initial; background-clip: initial; border-radius: 4px;&quot;&gt;&lt;pre style=&quot;font-size: 12px ; margin-top: 0px ; margin-bottom: 0px ; overflow: auto ; border-radius: 4px&quot;&gt;&lt;pre style=&quot;font-size: 24px; font-weight: 700; margin-top: 0px; margin-bottom: 0px; overflow: auto; border-radius: 4px;&quot;&gt;&lt;font face=&quot;menlo, monaco, consolas, andale mono, lucida console, courier new, monospace&quot;&gt;&lt;span style=&quot;font-size: 21.6px ; font-weight: 400&quot;&gt;Node&lt;/span&gt;&lt;/font&gt;&lt;/pre&gt;&lt;/pre&gt;&lt;/pre&gt;" style="rounded=0;whiteSpace=wrap;html=1;labelBackgroundColor=none;fillColor=#cdeb8b;strokeColor=#36393d;fontColor=#000000;" parent="1" vertex="1">
                    <mxGeometry x="800" y="370" width="120" height="60" as="geometry"/>
                </mxCell>
                <mxCell id="23" value="" style="shape=curlyBracket;whiteSpace=wrap;html=1;rounded=1;flipH=1;direction=north;" parent="1" vertex="1">
                    <mxGeometry x="510" y="450" width="410" height="20" as="geometry"/>
                </mxCell>
                <mxCell id="24" value="&lt;pre style=&quot;margin-top: 0px; margin-bottom: 0px; overflow: auto; background-image: initial; background-position: initial; background-size: initial; background-repeat: initial; background-attachment: initial; background-origin: initial; background-clip: initial; border-radius: 4px;&quot;&gt;&lt;font face=&quot;menlo, monaco, consolas, andale mono, lucida console, courier new, monospace&quot;&gt;&lt;span style=&quot;font-size: 21.6px ; font-weight: 400&quot;&gt;链表&lt;/span&gt;&lt;/font&gt;&lt;font&gt;&lt;span style=&quot;font-size: 0.9em ; font-weight: 400&quot;&gt;&lt;br&gt;&lt;/span&gt;&lt;/font&gt;&lt;/pre&gt;" style="text;strokeColor=none;fillColor=none;html=1;fontSize=24;fontStyle=1;verticalAlign=middle;align=center;labelBackgroundColor=default;fontColor=#000000;" parent="1" vertex="1">
                    <mxGeometry x="665" y="480" width="100" height="40" as="geometry"/>
                </mxCell>
                <mxCell id="26" value="基于JDK1.8的HashMap" style="text;html=1;strokeColor=#6F0000;fillColor=#a20025;align=center;verticalAlign=middle;whiteSpace=wrap;rounded=0;fontColor=#ffffff;fontSize=17;fontStyle=1" parent="1" vertex="1">
                    <mxGeometry x="900" y="140" width="220" height="60" as="geometry"/>
                </mxCell>
                <mxCell id="28" value="&lt;pre style=&quot;margin-top: 0px; margin-bottom: 0px; font-size: 0.9em; overflow: auto; background-image: initial; background-position: initial; background-size: initial; background-repeat: initial; background-attachment: initial; background-origin: initial; background-clip: initial; border-radius: 4px; color: rgb(18, 18, 18);&quot;&gt;&lt;pre style=&quot;font-size: 12px ; margin-top: 0px ; margin-bottom: 0px ; overflow: auto ; border-radius: 4px&quot;&gt;&lt;pre style=&quot;color: rgb(240 , 240 , 240) ; font-size: 24px ; font-weight: 700 ; margin-top: 0px ; margin-bottom: 0px ; overflow: auto ; border-radius: 4px&quot;&gt;&lt;font color=&quot;#d7ba7d&quot; face=&quot;menlo, monaco, consolas, andale mono, lucida console, courier new, monospace&quot;&gt;&lt;span style=&quot;font-size: 21.6px ; font-weight: 400&quot;&gt;Node&lt;/span&gt;&lt;/font&gt;&lt;/pre&gt;&lt;/pre&gt;&lt;/pre&gt;" style="rounded=0;whiteSpace=wrap;html=1;labelBackgroundColor=default;" parent="1" vertex="1">
                    <mxGeometry x="380" y="550" width="120" height="60" as="geometry"/>
                </mxCell>
                <mxCell id="29" value="&lt;pre style=&quot;margin-top: 0px; margin-bottom: 0px; font-size: 0.9em; overflow: auto; background-image: initial; background-position: initial; background-size: initial; background-repeat: initial; background-attachment: initial; background-origin: initial; background-clip: initial; border-radius: 4px; color: rgb(18, 18, 18);&quot;&gt;&lt;pre style=&quot;font-size: 12px ; margin-top: 0px ; margin-bottom: 0px ; overflow: auto ; border-radius: 4px&quot;&gt;&lt;pre style=&quot;color: rgb(240 , 240 , 240) ; font-size: 24px ; font-weight: 700 ; margin-top: 0px ; margin-bottom: 0px ; overflow: auto ; border-radius: 4px&quot;&gt;&lt;font color=&quot;#d7ba7d&quot; face=&quot;menlo, monaco, consolas, andale mono, lucida console, courier new, monospace&quot;&gt;&lt;span style=&quot;font-size: 21.6px ; font-weight: 400&quot;&gt;Node&lt;/span&gt;&lt;/font&gt;&lt;/pre&gt;&lt;/pre&gt;&lt;/pre&gt;" style="rounded=0;whiteSpace=wrap;html=1;labelBackgroundColor=default;" parent="1" vertex="1">
                    <mxGeometry x="380" y="610" width="120" height="60" as="geometry"/>
                </mxCell>
                <mxCell id="30" value="&lt;pre style=&quot;margin-top: 0px; margin-bottom: 0px; font-size: 0.9em; overflow: auto; background-image: initial; background-position: initial; background-size: initial; background-repeat: initial; background-attachment: initial; background-origin: initial; background-clip: initial; border-radius: 4px;&quot;&gt;&lt;pre style=&quot;font-size: 12px ; margin-top: 0px ; margin-bottom: 0px ; overflow: auto ; border-radius: 4px&quot;&gt;&lt;pre style=&quot;font-size: 24px; font-weight: 700; margin-top: 0px; margin-bottom: 0px; overflow: auto; border-radius: 4px;&quot;&gt;&lt;font face=&quot;menlo, monaco, consolas, andale mono, lucida console, courier new, monospace&quot;&gt;&lt;span style=&quot;font-size: 21.6px ; font-weight: 400&quot;&gt;Node&lt;/span&gt;&lt;/font&gt;&lt;/pre&gt;&lt;/pre&gt;&lt;/pre&gt;" style="rounded=0;whiteSpace=wrap;html=1;labelBackgroundColor=none;fillColor=#cdeb8b;strokeColor=#36393d;fontColor=#000000;" parent="1" vertex="1">
                    <mxGeometry x="380" y="670" width="120" height="60" as="geometry"/>
                </mxCell>
                <mxCell id="34" value="&lt;pre style=&quot;margin-top: 0px ; margin-bottom: 0px ; font-size: 0.9em ; overflow: auto ; background: rgb(246 , 246 , 246) ; border-radius: 4px ; color: rgb(18 , 18 , 18)&quot;&gt;&lt;pre style=&quot;font-size: 12px ; margin-top: 0px ; margin-bottom: 0px ; overflow: auto ; border-radius: 4px&quot;&gt;&lt;pre style=&quot;color: rgb(240 , 240 , 240) ; font-size: 24px ; font-weight: 700 ; margin-top: 0px ; margin-bottom: 0px ; overflow: auto ; border-radius: 4px&quot;&gt;&lt;font color=&quot;#d7ba7d&quot; face=&quot;menlo, monaco, consolas, andale mono, lucida console, courier new, monospace&quot;&gt;&lt;span style=&quot;font-size: 21.6px ; font-weight: 400&quot;&gt;Node&lt;/span&gt;&lt;/font&gt;&lt;/pre&gt;&lt;/pre&gt;&lt;/pre&gt;" style="rounded=0;whiteSpace=wrap;html=1;fillColor=none;" parent="1" vertex="1">
                    <mxGeometry x="380" y="730" width="120" height="60" as="geometry"/>
                </mxCell>
                <mxCell id="42" style="edgeStyle=none;html=1;exitX=1;exitY=0.5;exitDx=0;exitDy=0;entryX=0;entryY=0.5;entryDx=0;entryDy=0;fontSize=17;" parent="1" source="35" target="39" edge="1">
                    <mxGeometry relative="1" as="geometry"/>
                </mxCell>
                <mxCell id="43" style="edgeStyle=none;html=1;exitX=1;exitY=0.5;exitDx=0;exitDy=0;entryX=0;entryY=0.5;entryDx=0;entryDy=0;fontSize=17;" parent="1" source="35" target="40" edge="1">
                    <mxGeometry relative="1" as="geometry"/>
                </mxCell>
                <mxCell id="35" value="TreeNode" style="ellipse;whiteSpace=wrap;html=1;aspect=fixed;fontSize=12;fillColor=#000000;fontColor=#FFFF66;" parent="1" vertex="1">
                    <mxGeometry x="414" y="730" width="60" height="60" as="geometry"/>
                </mxCell>
                <mxCell id="50" style="edgeStyle=none;html=1;exitX=1;exitY=0.5;exitDx=0;exitDy=0;entryX=0;entryY=0.5;entryDx=0;entryDy=0;fontSize=17;" parent="1" source="39" target="44" edge="1">
                    <mxGeometry relative="1" as="geometry"/>
                </mxCell>
                <mxCell id="51" style="edgeStyle=none;html=1;exitX=1;exitY=0.5;exitDx=0;exitDy=0;entryX=0;entryY=0.5;entryDx=0;entryDy=0;fontSize=17;" parent="1" source="39" target="47" edge="1">
                    <mxGeometry relative="1" as="geometry"/>
                </mxCell>
                <mxCell id="39" value="&lt;span style=&quot;font-size: 12px;&quot;&gt;TreeNode&lt;/span&gt;" style="ellipse;whiteSpace=wrap;html=1;aspect=fixed;fontSize=17;fillColor=#a20025;fontColor=#FFFF66;strokeColor=#6F0000;" parent="1" vertex="1">
                    <mxGeometry x="550" y="650" width="60" height="60" as="geometry"/>
                </mxCell>
                <mxCell id="52" style="edgeStyle=none;html=1;exitX=1;exitY=0.5;exitDx=0;exitDy=0;entryX=0;entryY=0.5;entryDx=0;entryDy=0;fontSize=17;" parent="1" source="40" target="46" edge="1">
                    <mxGeometry relative="1" as="geometry"/>
                </mxCell>
                <mxCell id="53" style="edgeStyle=none;html=1;exitX=1;exitY=0.5;exitDx=0;exitDy=0;entryX=0;entryY=0.5;entryDx=0;entryDy=0;fontSize=17;" parent="1" source="40" target="48" edge="1">
                    <mxGeometry relative="1" as="geometry"/>
                </mxCell>
                <mxCell id="40" value="&lt;span style=&quot;font-size: 12px;&quot;&gt;TreeNode&lt;/span&gt;" style="ellipse;whiteSpace=wrap;html=1;aspect=fixed;fontSize=17;fillColor=#a20025;fontColor=#FFFF66;strokeColor=#6F0000;" parent="1" vertex="1">
                    <mxGeometry x="550" y="810" width="60" height="60" as="geometry"/>
                </mxCell>
                <mxCell id="44" value="&lt;span style=&quot;font-size: 12px&quot;&gt;TreeNode&lt;/span&gt;" style="ellipse;whiteSpace=wrap;html=1;aspect=fixed;fontSize=17;fillColor=#000000;fontColor=#FFFF66;" parent="1" vertex="1">
                    <mxGeometry x="660" y="610" width="60" height="60" as="geometry"/>
                </mxCell>
                <mxCell id="46" value="&lt;span style=&quot;font-size: 12px&quot;&gt;TreeNode&lt;/span&gt;" style="ellipse;whiteSpace=wrap;html=1;aspect=fixed;fontSize=17;fillColor=#000000;fontColor=#FFFF66;" parent="1" vertex="1">
                    <mxGeometry x="660" y="780" width="60" height="60" as="geometry"/>
                </mxCell>
                <mxCell id="47" value="&lt;span style=&quot;font-size: 12px&quot;&gt;TreeNode&lt;/span&gt;" style="ellipse;whiteSpace=wrap;html=1;aspect=fixed;fontSize=17;fillColor=#000000;fontColor=#FFFF66;" parent="1" vertex="1">
                    <mxGeometry x="660" y="680" width="60" height="60" as="geometry"/>
                </mxCell>
                <mxCell id="55" value="" style="edgeStyle=none;html=1;fontSize=17;" parent="1" source="48" target="54" edge="1">
                    <mxGeometry relative="1" as="geometry"/>
                </mxCell>
                <mxCell id="48" value="&lt;span style=&quot;font-size: 12px&quot;&gt;TreeNode&lt;/span&gt;" style="ellipse;whiteSpace=wrap;html=1;aspect=fixed;fontSize=17;fillColor=#000000;fontColor=#FFFF66;" parent="1" vertex="1">
                    <mxGeometry x="660" y="850" width="60" height="60" as="geometry"/>
                </mxCell>
                <mxCell id="54" value="&lt;span style=&quot;font-size: 12px;&quot;&gt;TreeNode&lt;/span&gt;" style="ellipse;whiteSpace=wrap;html=1;aspect=fixed;fontSize=17;fillColor=#a20025;fontColor=#FFFF66;strokeColor=#6F0000;" parent="1" vertex="1">
                    <mxGeometry x="770" y="850" width="60" height="60" as="geometry"/>
                </mxCell>
                <mxCell id="56" value="" style="shape=curlyBracket;whiteSpace=wrap;html=1;rounded=1;flipH=1;fontSize=12;fillColor=#000000;direction=east;" parent="1" vertex="1">
                    <mxGeometry x="842" y="606" width="20" height="300" as="geometry"/>
                </mxCell>
                <mxCell id="58" value="&lt;pre style=&quot;margin-top: 0px; margin-bottom: 0px; overflow: auto; background-image: initial; background-position: initial; background-size: initial; background-repeat: initial; background-attachment: initial; background-origin: initial; background-clip: initial; border-radius: 4px;&quot;&gt;&lt;font face=&quot;menlo, monaco, consolas, andale mono, lucida console, courier new, monospace&quot;&gt;&lt;span style=&quot;font-size: 21.6px ; font-weight: 400&quot;&gt;红黑树，当插入元素时桶的长度&amp;gt;=64，&lt;br&gt;链表的长度&amp;gt;8的时候会转换成红黑树，&lt;br&gt;当链表长度&amp;lt;6的时候会红黑树退化成链表&lt;/span&gt;&lt;/font&gt;&lt;br&gt;&lt;/pre&gt;" style="text;strokeColor=none;fillColor=none;html=1;fontSize=24;fontStyle=1;verticalAlign=middle;align=center;labelBackgroundColor=default;fontColor=#000000;" parent="1" vertex="1">
                    <mxGeometry x="862" y="701" width="426" height="110" as="geometry"/>
                </mxCell>
                <mxCell id="59" value="&lt;pre style=&quot;margin-top: 0px; margin-bottom: 0px; font-size: 0.9em; overflow: auto; background-image: initial; background-position: initial; background-size: initial; background-repeat: initial; background-attachment: initial; background-origin: initial; background-clip: initial; border-radius: 4px; color: rgb(18, 18, 18);&quot;&gt;&lt;pre style=&quot;font-size: 12px ; margin-top: 0px ; margin-bottom: 0px ; overflow: auto ; border-radius: 4px&quot;&gt;&lt;pre style=&quot;color: rgb(240 , 240 , 240) ; font-size: 24px ; font-weight: 700 ; margin-top: 0px ; margin-bottom: 0px ; overflow: auto ; border-radius: 4px&quot;&gt;&lt;font color=&quot;#d7ba7d&quot; face=&quot;menlo, monaco, consolas, andale mono, lucida console, courier new, monospace&quot;&gt;&lt;span style=&quot;font-size: 21.6px ; font-weight: 400&quot;&gt;Node&lt;/span&gt;&lt;/font&gt;&lt;/pre&gt;&lt;/pre&gt;&lt;/pre&gt;" style="rounded=0;whiteSpace=wrap;html=1;labelBackgroundColor=default;" parent="1" vertex="1">
                    <mxGeometry x="380" y="430" width="120" height="60" as="geometry"/>
                </mxCell>
                <mxCell id="60" value="&lt;pre style=&quot;margin-top: 0px; margin-bottom: 0px; font-size: 0.9em; overflow: auto; background-image: initial; background-position: initial; background-size: initial; background-repeat: initial; background-attachment: initial; background-origin: initial; background-clip: initial; border-radius: 4px; color: rgb(18, 18, 18);&quot;&gt;&lt;pre style=&quot;font-size: 12px ; margin-top: 0px ; margin-bottom: 0px ; overflow: auto ; border-radius: 4px&quot;&gt;&lt;pre style=&quot;color: rgb(240 , 240 , 240) ; font-size: 24px ; font-weight: 700 ; margin-top: 0px ; margin-bottom: 0px ; overflow: auto ; border-radius: 4px&quot;&gt;&lt;font color=&quot;#d7ba7d&quot; face=&quot;menlo, monaco, consolas, andale mono, lucida console, courier new, monospace&quot;&gt;&lt;span style=&quot;font-size: 21.6px ; font-weight: 400&quot;&gt;Node&lt;/span&gt;&lt;/font&gt;&lt;/pre&gt;&lt;/pre&gt;&lt;/pre&gt;" style="rounded=0;whiteSpace=wrap;html=1;labelBackgroundColor=default;" parent="1" vertex="1">
                    <mxGeometry x="380" y="490" width="120" height="60" as="geometry"/>
                </mxCell>
                <mxCell id="61" value="&lt;pre style=&quot;margin-top: 0px; margin-bottom: 0px; font-size: 0.9em; overflow: auto; background-image: initial; background-position: initial; background-size: initial; background-repeat: initial; background-attachment: initial; background-origin: initial; background-clip: initial; border-radius: 4px; color: rgb(18, 18, 18);&quot;&gt;&lt;pre style=&quot;font-size: 12px ; margin-top: 0px ; margin-bottom: 0px ; overflow: auto ; border-radius: 4px&quot;&gt;&lt;pre style=&quot;color: rgb(240 , 240 , 240) ; font-size: 24px ; font-weight: 700 ; margin-top: 0px ; margin-bottom: 0px ; overflow: auto ; border-radius: 4px&quot;&gt;&lt;font color=&quot;#d7ba7d&quot; face=&quot;menlo, monaco, consolas, andale mono, lucida console, courier new, monospace&quot;&gt;&lt;span style=&quot;font-size: 21.6px ; font-weight: 400&quot;&gt;Node&lt;/span&gt;&lt;/font&gt;&lt;/pre&gt;&lt;/pre&gt;&lt;/pre&gt;" style="rounded=0;whiteSpace=wrap;html=1;labelBackgroundColor=default;" parent="1" vertex="1">
                    <mxGeometry x="380" y="550" width="120" height="60" as="geometry"/>
                </mxCell>
                <mxCell id="62" value="&lt;pre style=&quot;margin-top: 0px; margin-bottom: 0px; font-size: 0.9em; overflow: auto; background-image: initial; background-position: initial; background-size: initial; background-repeat: initial; background-attachment: initial; background-origin: initial; background-clip: initial; border-radius: 4px; color: rgb(18, 18, 18);&quot;&gt;&lt;pre style=&quot;font-size: 12px ; margin-top: 0px ; margin-bottom: 0px ; overflow: auto ; border-radius: 4px&quot;&gt;&lt;pre style=&quot;color: rgb(240 , 240 , 240) ; font-size: 24px ; font-weight: 700 ; margin-top: 0px ; margin-bottom: 0px ; overflow: auto ; border-radius: 4px&quot;&gt;&lt;font color=&quot;#d7ba7d&quot; face=&quot;menlo, monaco, consolas, andale mono, lucida console, courier new, monospace&quot;&gt;&lt;span style=&quot;font-size: 21.6px ; font-weight: 400&quot;&gt;Node&lt;/span&gt;&lt;/font&gt;&lt;/pre&gt;&lt;/pre&gt;&lt;/pre&gt;" style="rounded=0;whiteSpace=wrap;html=1;labelBackgroundColor=default;" parent="1" vertex="1">
                    <mxGeometry x="380" y="610" width="120" height="60" as="geometry"/>
                </mxCell>
                <mxCell id="63" value="&lt;pre style=&quot;margin-top: 0px; margin-bottom: 0px; font-size: 0.9em; overflow: auto; background-image: initial; background-position: initial; background-size: initial; background-repeat: initial; background-attachment: initial; background-origin: initial; background-clip: initial; border-radius: 4px;&quot;&gt;&lt;pre style=&quot;font-size: 12px ; margin-top: 0px ; margin-bottom: 0px ; overflow: auto ; border-radius: 4px&quot;&gt;&lt;pre style=&quot;font-size: 24px; font-weight: 700; margin-top: 0px; margin-bottom: 0px; overflow: auto; border-radius: 4px;&quot;&gt;&lt;font face=&quot;menlo, monaco, consolas, andale mono, lucida console, courier new, monospace&quot;&gt;&lt;span style=&quot;font-size: 21.6px ; font-weight: 400&quot;&gt;Node&lt;/span&gt;&lt;/font&gt;&lt;/pre&gt;&lt;/pre&gt;&lt;/pre&gt;" style="rounded=0;whiteSpace=wrap;html=1;labelBackgroundColor=none;fillColor=#cdeb8b;strokeColor=#36393d;fontColor=#000000;" parent="1" vertex="1">
                    <mxGeometry x="380" y="430" width="120" height="60" as="geometry"/>
                </mxCell>
                <mxCell id="64" value="&lt;pre style=&quot;margin-top: 0px; margin-bottom: 0px; font-size: 0.9em; overflow: auto; background-image: initial; background-position: initial; background-size: initial; background-repeat: initial; background-attachment: initial; background-origin: initial; background-clip: initial; border-radius: 4px;&quot;&gt;&lt;pre style=&quot;font-size: 12px ; margin-top: 0px ; margin-bottom: 0px ; overflow: auto ; border-radius: 4px&quot;&gt;&lt;pre style=&quot;font-size: 24px; font-weight: 700; margin-top: 0px; margin-bottom: 0px; overflow: auto; border-radius: 4px;&quot;&gt;&lt;font face=&quot;menlo, monaco, consolas, andale mono, lucida console, courier new, monospace&quot;&gt;&lt;span style=&quot;font-size: 21.6px ; font-weight: 400&quot;&gt;Node&lt;/span&gt;&lt;/font&gt;&lt;/pre&gt;&lt;/pre&gt;&lt;/pre&gt;" style="rounded=0;whiteSpace=wrap;html=1;labelBackgroundColor=none;fillColor=#cdeb8b;strokeColor=#36393d;fontColor=#000000;" parent="1" vertex="1">
                    <mxGeometry x="380" y="490" width="120" height="60" as="geometry"/>
                </mxCell>
                <mxCell id="65" value="&lt;pre style=&quot;margin-top: 0px; margin-bottom: 0px; font-size: 0.9em; overflow: auto; background-image: initial; background-position: initial; background-size: initial; background-repeat: initial; background-attachment: initial; background-origin: initial; background-clip: initial; border-radius: 4px;&quot;&gt;&lt;pre style=&quot;font-size: 12px ; margin-top: 0px ; margin-bottom: 0px ; overflow: auto ; border-radius: 4px&quot;&gt;&lt;pre style=&quot;font-size: 24px; font-weight: 700; margin-top: 0px; margin-bottom: 0px; overflow: auto; border-radius: 4px;&quot;&gt;&lt;font face=&quot;menlo, monaco, consolas, andale mono, lucida console, courier new, monospace&quot;&gt;&lt;span style=&quot;font-size: 21.6px ; font-weight: 400&quot;&gt;Node&lt;/span&gt;&lt;/font&gt;&lt;/pre&gt;&lt;/pre&gt;&lt;/pre&gt;" style="rounded=0;whiteSpace=wrap;html=1;labelBackgroundColor=none;fillColor=#cdeb8b;strokeColor=#36393d;fontColor=#000000;" parent="1" vertex="1">
                    <mxGeometry x="380" y="550" width="120" height="60" as="geometry"/>
                </mxCell>
                <mxCell id="66" value="&lt;pre style=&quot;margin-top: 0px; margin-bottom: 0px; font-size: 0.9em; overflow: auto; background-image: initial; background-position: initial; background-size: initial; background-repeat: initial; background-attachment: initial; background-origin: initial; background-clip: initial; border-radius: 4px;&quot;&gt;&lt;pre style=&quot;font-size: 12px ; margin-top: 0px ; margin-bottom: 0px ; overflow: auto ; border-radius: 4px&quot;&gt;&lt;pre style=&quot;font-size: 24px; font-weight: 700; margin-top: 0px; margin-bottom: 0px; overflow: auto; border-radius: 4px;&quot;&gt;&lt;font face=&quot;menlo, monaco, consolas, andale mono, lucida console, courier new, monospace&quot;&gt;&lt;span style=&quot;font-size: 21.6px ; font-weight: 400&quot;&gt;Node&lt;/span&gt;&lt;/font&gt;&lt;/pre&gt;&lt;/pre&gt;&lt;/pre&gt;" style="rounded=0;whiteSpace=wrap;html=1;labelBackgroundColor=none;fillColor=#cdeb8b;strokeColor=#36393d;fontColor=#000000;" parent="1" vertex="1">
                    <mxGeometry x="380" y="610" width="120" height="60" as="geometry"/>
                </mxCell>
                <mxCell id="67" value="&lt;pre style=&quot;margin-top: 0px; margin-bottom: 0px; font-size: 0.9em; overflow: auto; background-image: initial; background-position: initial; background-size: initial; background-repeat: initial; background-attachment: initial; background-origin: initial; background-clip: initial; border-radius: 4px;&quot;&gt;&lt;pre style=&quot;font-size: 12px ; margin-top: 0px ; margin-bottom: 0px ; overflow: auto ; border-radius: 4px&quot;&gt;&lt;pre style=&quot;font-size: 24px; font-weight: 700; margin-top: 0px; margin-bottom: 0px; overflow: auto; border-radius: 4px;&quot;&gt;&lt;font face=&quot;menlo, monaco, consolas, andale mono, lucida console, courier new, monospace&quot;&gt;&lt;span style=&quot;font-size: 21.6px ; font-weight: 400&quot;&gt;Node&lt;/span&gt;&lt;/font&gt;&lt;/pre&gt;&lt;/pre&gt;&lt;/pre&gt;" style="rounded=0;whiteSpace=wrap;html=1;labelBackgroundColor=none;fillColor=#cdeb8b;strokeColor=#36393d;fontColor=#000000;" parent="1" vertex="1">
                    <mxGeometry x="520" y="370" width="120" height="60" as="geometry"/>
                </mxCell>
                <mxCell id="68" value="&lt;pre style=&quot;margin-top: 0px; margin-bottom: 0px; font-size: 0.9em; overflow: auto; background-image: initial; background-position: initial; background-size: initial; background-repeat: initial; background-attachment: initial; background-origin: initial; background-clip: initial; border-radius: 4px;&quot;&gt;&lt;pre style=&quot;font-size: 12px ; margin-top: 0px ; margin-bottom: 0px ; overflow: auto ; border-radius: 4px&quot;&gt;&lt;pre style=&quot;font-size: 24px; font-weight: 700; margin-top: 0px; margin-bottom: 0px; overflow: auto; border-radius: 4px;&quot;&gt;&lt;font face=&quot;menlo, monaco, consolas, andale mono, lucida console, courier new, monospace&quot;&gt;&lt;span style=&quot;font-size: 21.6px ; font-weight: 400&quot;&gt;Node&lt;/span&gt;&lt;/font&gt;&lt;/pre&gt;&lt;/pre&gt;&lt;/pre&gt;" style="rounded=0;whiteSpace=wrap;html=1;labelBackgroundColor=none;fillColor=#cdeb8b;strokeColor=#36393d;fontColor=#000000;" parent="1" vertex="1">
                    <mxGeometry x="660" y="370" width="120" height="60" as="geometry"/>
                </mxCell>
                <mxCell id="70" value="hash" style="rounded=1;whiteSpace=wrap;html=1;fillColor=#CDEB8B;fontColor=#000000;" parent="1" vertex="1">
                    <mxGeometry x="620" y="98" width="41" height="27" as="geometry"/>
                </mxCell>
                <mxCell id="74" value="key" style="rounded=1;whiteSpace=wrap;html=1;fillColor=#CDEB8B;gradientColor=none;fontColor=#000000;" parent="1" vertex="1">
                    <mxGeometry x="662" y="98" width="41" height="27" as="geometry"/>
                </mxCell>
                <mxCell id="75" value="value" style="rounded=1;whiteSpace=wrap;html=1;fillColor=#CDEB8B;fontColor=#000000;" parent="1" vertex="1">
                    <mxGeometry x="704" y="98" width="41" height="27" as="geometry"/>
                </mxCell>
                <mxCell id="76" value="next" style="rounded=1;whiteSpace=wrap;html=1;fillColor=#CDEB8B;fontColor=#000000;" parent="1" vertex="1">
                    <mxGeometry x="746" y="98" width="41" height="27" as="geometry"/>
                </mxCell>
                <mxCell id="78" value="" style="endArrow=none;html=1;entryX=0.5;entryY=1;entryDx=0;entryDy=0;exitX=0.5;exitY=0;exitDx=0;exitDy=0;" parent="1" source="13" target="70" edge="1">
                    <mxGeometry width="50" height="50" relative="1" as="geometry">
                        <mxPoint x="530" y="131" as="sourcePoint"/>
                        <mxPoint x="580" y="81" as="targetPoint"/>
                    </mxGeometry>
                </mxCell>
                <mxCell id="79" value="parent" style="rounded=1;whiteSpace=wrap;html=1;fillColor=#CDEB8B;fontColor=#000000;" parent="1" vertex="1">
                    <mxGeometry x="694" y="535" width="41" height="27" as="geometry"/>
                </mxCell>
                <mxCell id="80" value="left" style="rounded=1;whiteSpace=wrap;html=1;fillColor=#CDEB8B;gradientColor=none;fontColor=#000000;" parent="1" vertex="1">
                    <mxGeometry x="736" y="535" width="41" height="27" as="geometry"/>
                </mxCell>
                <mxCell id="81" value="right" style="rounded=1;whiteSpace=wrap;html=1;fillColor=#CDEB8B;fontColor=#000000;" parent="1" vertex="1">
                    <mxGeometry x="778" y="535" width="41" height="27" as="geometry"/>
                </mxCell>
                <mxCell id="82" value="prev" style="rounded=1;whiteSpace=wrap;html=1;fillColor=#CDEB8B;fontColor=#000000;" parent="1" vertex="1">
                    <mxGeometry x="820" y="535" width="41" height="27" as="geometry"/>
                </mxCell>
                <mxCell id="83" value="red" style="rounded=1;whiteSpace=wrap;html=1;fillColor=#CDEB8B;fontColor=#000000;" parent="1" vertex="1">
                    <mxGeometry x="862" y="535" width="41" height="27" as="geometry"/>
                </mxCell>
                <mxCell id="84" value="" style="endArrow=none;html=1;fontColor=#000000;entryX=0.5;entryY=1;entryDx=0;entryDy=0;exitX=0.5;exitY=0;exitDx=0;exitDy=0;" parent="1" source="44" target="79" edge="1">
                    <mxGeometry width="50" height="50" relative="1" as="geometry">
                        <mxPoint x="584" y="587" as="sourcePoint"/>
                        <mxPoint x="634" y="537" as="targetPoint"/>
                    </mxGeometry>
                </mxCell>
                <mxCell id="85" value="属性元素" style="text;html=1;strokeColor=none;fillColor=none;align=center;verticalAlign=middle;whiteSpace=wrap;rounded=0;fontColor=#000000;" parent="1" vertex="1">
                    <mxGeometry x="628" y="143" width="60" height="30" as="geometry"/>
                </mxCell>
                <mxCell id="86" value="属性元素" style="text;html=1;strokeColor=none;fillColor=none;align=center;verticalAlign=middle;whiteSpace=wrap;rounded=0;fontColor=#000000;" parent="1" vertex="1">
                    <mxGeometry x="705" y="575" width="60" height="30" as="geometry"/>
                </mxCell>
                <mxCell id="87" value="&lt;pre style=&quot;margin-top: 0px; margin-bottom: 0px; overflow: auto; border-radius: 4px;&quot;&gt;&lt;pre style=&quot;font-size: 24px; font-weight: 700; margin-top: 0px; margin-bottom: 0px; overflow: auto; border-radius: 4px;&quot;&gt;&lt;font face=&quot;menlo, monaco, consolas, andale mono, lucida console, courier new, monospace&quot;&gt;&lt;span style=&quot;font-size: 21.6px ; font-weight: 400&quot;&gt;Node&lt;/span&gt;&lt;/font&gt;&lt;/pre&gt;&lt;/pre&gt;" style="rounded=0;whiteSpace=wrap;html=1;fillColor=#cdeb8b;strokeColor=#36393d;fontColor=#000000;" vertex="1" parent="1">
                    <mxGeometry x="380" y="190" width="120" height="60" as="geometry"/>
                </mxCell>
                <mxCell id="88" value="&lt;pre style=&quot;margin-top: 0px; margin-bottom: 0px; font-size: 0.9em; overflow: auto; background-image: initial; background-position: initial; background-size: initial; background-repeat: initial; background-attachment: initial; background-origin: initial; background-clip: initial; border-radius: 4px;&quot;&gt;&lt;pre style=&quot;font-size: 12px ; margin-top: 0px ; margin-bottom: 0px ; overflow: auto ; border-radius: 4px&quot;&gt;&lt;pre style=&quot;font-size: 24px; font-weight: 700; margin-top: 0px; margin-bottom: 0px; overflow: auto; border-radius: 4px;&quot;&gt;&lt;font face=&quot;menlo, monaco, consolas, andale mono, lucida console, courier new, monospace&quot;&gt;&lt;span style=&quot;font-size: 21.6px ; font-weight: 400&quot;&gt;Node&lt;/span&gt;&lt;/font&gt;&lt;/pre&gt;&lt;/pre&gt;&lt;/pre&gt;" style="rounded=0;whiteSpace=wrap;html=1;labelBackgroundColor=none;fillColor=#cdeb8b;strokeColor=#36393d;fontColor=#000000;" vertex="1" parent="1">
                    <mxGeometry x="380" y="250" width="120" height="60" as="geometry"/>
                </mxCell>
                <mxCell id="89" value="&lt;pre style=&quot;margin-top: 0px; margin-bottom: 0px; font-size: 0.9em; overflow: auto; background-image: initial; background-position: initial; background-size: initial; background-repeat: initial; background-attachment: initial; background-origin: initial; background-clip: initial; border-radius: 4px;&quot;&gt;&lt;pre style=&quot;font-size: 12px ; margin-top: 0px ; margin-bottom: 0px ; overflow: auto ; border-radius: 4px&quot;&gt;&lt;pre style=&quot;font-size: 24px; font-weight: 700; margin-top: 0px; margin-bottom: 0px; overflow: auto; border-radius: 4px;&quot;&gt;&lt;font face=&quot;menlo, monaco, consolas, andale mono, lucida console, courier new, monospace&quot;&gt;&lt;span style=&quot;font-size: 21.6px ; font-weight: 400&quot;&gt;Node&lt;/span&gt;&lt;/font&gt;&lt;/pre&gt;&lt;/pre&gt;&lt;/pre&gt;" style="rounded=0;whiteSpace=wrap;html=1;labelBackgroundColor=none;fillColor=#cdeb8b;strokeColor=#36393d;fontColor=#000000;" vertex="1" parent="1">
                    <mxGeometry x="380" y="310" width="120" height="60" as="geometry"/>
                </mxCell>
                <mxCell id="90" value="&lt;pre style=&quot;margin-top: 0px; margin-bottom: 0px; font-size: 0.9em; overflow: auto; background-image: initial; background-position: initial; background-size: initial; background-repeat: initial; background-attachment: initial; background-origin: initial; background-clip: initial; border-radius: 4px;&quot;&gt;&lt;pre style=&quot;font-size: 12px ; margin-top: 0px ; margin-bottom: 0px ; overflow: auto ; border-radius: 4px&quot;&gt;&lt;pre style=&quot;font-size: 24px; font-weight: 700; margin-top: 0px; margin-bottom: 0px; overflow: auto; border-radius: 4px;&quot;&gt;&lt;font face=&quot;menlo, monaco, consolas, andale mono, lucida console, courier new, monospace&quot;&gt;&lt;span style=&quot;font-size: 21.6px ; font-weight: 400&quot;&gt;Node&lt;/span&gt;&lt;/font&gt;&lt;/pre&gt;&lt;/pre&gt;&lt;/pre&gt;" style="rounded=0;whiteSpace=wrap;html=1;labelBackgroundColor=none;fillColor=#cdeb8b;strokeColor=#36393d;fontColor=#000000;" vertex="1" parent="1">
                    <mxGeometry x="380" y="370" width="120" height="60" as="geometry"/>
                </mxCell>
                <mxCell id="91" value="&lt;pre style=&quot;margin-top: 0px; margin-bottom: 0px; font-size: 0.9em; overflow: auto; background-image: initial; background-position: initial; background-size: initial; background-repeat: initial; background-attachment: initial; background-origin: initial; background-clip: initial; border-radius: 4px;&quot;&gt;&lt;pre style=&quot;font-size: 12px ; margin-top: 0px ; margin-bottom: 0px ; overflow: auto ; border-radius: 4px&quot;&gt;&lt;pre style=&quot;font-size: 24px; font-weight: 700; margin-top: 0px; margin-bottom: 0px; overflow: auto; border-radius: 4px;&quot;&gt;&lt;font face=&quot;menlo, monaco, consolas, andale mono, lucida console, courier new, monospace&quot;&gt;&lt;span style=&quot;font-size: 21.6px ; font-weight: 400&quot;&gt;Node&lt;/span&gt;&lt;/font&gt;&lt;/pre&gt;&lt;/pre&gt;&lt;/pre&gt;" style="rounded=0;whiteSpace=wrap;html=1;labelBackgroundColor=none;fillColor=#cdeb8b;strokeColor=#36393d;fontColor=#000000;" vertex="1" parent="1">
                    <mxGeometry x="380" y="430" width="120" height="60" as="geometry"/>
                </mxCell>
            </root>
        </mxGraphModel>
    </diagram>
</mxfile>